<?xml version="1.0" encoding="utf-8"?><!--Generator: Adobe Illustrator 24.0.1, SVG Export Plug-In . SVG Version: 6.00 Build 0)--><svg version="1.1" id="圖層_1" xmlns="http://www.w3.org/2000/svg" xmlns:xlink="http://www.w3.org/1999/xlink" x="0px" y="0px" viewBox="0 0 100 100" enable-background="new 0 0 100 100" xml:space="preserve"><path fill="#F8B26A" stroke="#333333" stroke-width="3.5" stroke-linecap="round" stroke-linejoin="round" stroke-miterlimit="10" d=" M72.75,66.16L50,61.26l7.08-32.89c0.78-3.61,4.33-5.91,7.94-5.13l9.68,2.08c3.61,0.78,5.91,4.33,5.13,7.94L72.75,66.16z"/><path fill="#F5E6C8" stroke="#333333" stroke-width="3.5" stroke-linecap="round" stroke-linejoin="round" stroke-miterlimit="10" d=" M69.58,67.2H31.09c-3.36,0-6.09-2.73-6.09-6.09v-7.78c0-3.85,3.52-6.73,7.3-5.97l38.49,7.78c2.84,0.57,4.88,3.07,4.88,5.97v0 C75.67,64.48,72.94,67.2,69.58,67.2z"/><path fill="#C8DC96" stroke="#333333" stroke-width="3.5" stroke-linecap="round" stroke-linejoin="round" stroke-miterlimit="10" d=" M72.53,73H28.14C25.3,73,23,70.7,23,67.86v0c0-2.84,2.3-5.14,5.14-5.14h44.39c2.84,0,5.14,2.3,5.14,5.14v0 C77.67,70.7,75.37,73,72.53,73z"/><path fill="#F5E6C8" stroke="#333333" stroke-width="3.5" stroke-linecap="round" stroke-linejoin="round" stroke-miterlimit="10" d=" M50.8,51.22H30.26c-2.32,0-4.21-1.88-4.21-4.21V26.16c0-2.43,1.97-4.39,4.39-4.39h18.92c3.11,0,5.63,0.52,5.63,3.63v21.62 C55.01,49.34,53.12,51.22,50.8,51.22z"/><path fill="#A0C8D7" stroke="#333333" stroke-width="3.5" stroke-linecap="round" stroke-linejoin="round" stroke-miterlimit="10" d=" M10.01,30.5l9.26,41.56c0.8,3.61,4.01,6.18,7.7,6.18h46.07c3.7,0,6.9-2.57,7.7-6.18l9.26-41.56H10.01z M31.58,65.02 c0,1.84-1.49,3.33-3.33,3.33s-3.33-1.49-3.33-3.33V46.39c0-1.84,1.49-3.33,3.33-3.33s3.33,1.49,3.33,3.33V65.02z M46.08,65.02 c0,1.84-1.49,3.33-3.33,3.33s-3.33-1.49-3.33-3.33V46.39c0-1.84,1.49-3.33,3.33-3.33s3.33,1.49,3.33,3.33V65.02z M60.58,65.02 c0,1.84-1.49,3.33-3.33,3.33s-3.33-1.49-3.33-3.33V46.39c0-1.84,1.49-3.33,3.33-3.33s3.33,1.49,3.33,3.33V65.02z M75.08,65.02 c0,1.84-1.49,3.33-3.33,3.33s-3.33-1.49-3.33-3.33V46.39c0-1.84,1.49-3.33,3.33-3.33s3.33,1.49,3.33,3.33V65.02z"/><path fill="#A0C8D7" stroke="#333333" stroke-width="3.5" stroke-linecap="round" stroke-linejoin="round" stroke-miterlimit="10" d=" M89.65,36.49h-79.3c-1.65,0-2.99-1.34-2.99-2.99v0c0-1.65,1.34-2.99,2.99-2.99h79.3c1.65,0,2.99,1.34,2.99,2.99v0 C92.65,35.15,91.31,36.49,89.65,36.49z"/><path fill="#F5E6C8" stroke="#333333" stroke-width="3.5" stroke-linecap="round" stroke-linejoin="round" stroke-miterlimit="10" d=" M50.01,30.5v24.01c0,2.32-1.88,4.21-4.21,4.21H25.26c-2.32,0-4.21-1.88-4.21-4.21V26.16c0-2.43,1.97-4.39,4.39-4.39h24.55"/><metadata xmlns:d="https://loading.io/stock/">
<d:name>bathroom</d:name>
<d:tags>bathroom,laundry basket,clean,wash,dirty</d:tags>
<d:license>by</d:license>
<d:slug>3g6aog</d:slug>
</metadata></svg>